<?xml version="1.0" encoding="UTF-8" standalone="no"?>
<svg
   xmlns:dc="http://purl.org/dc/elements/1.1/"
   xmlns:cc="http://creativecommons.org/ns#"
   xmlns:rdf="http://www.w3.org/1999/02/22-rdf-syntax-ns#"
   xmlns:svg="http://www.w3.org/2000/svg"
   xmlns="http://www.w3.org/2000/svg"
   width="512"
   height="512"
   viewBox="0 0 512 512"
   version="1.1"
   id="svg865">
  <defs
     id="defs859">
    <rect
       x="142.69856"
       y="195.36842"
       width="232.72727"
       height="205.16746"
       id="rect2615" />
    <rect
       x="184"
       y="377"
       width="260"
       height="153"
       id="rect1447" />
    <rect
       x="55"
       y="279"
       width="601.27808"
       height="220.44573"
       id="rect1441" />
  </defs>
  <metadata
     id="metadata862">
    <rdf:RDF>
      <cc:Work
         rdf:about="">
        <dc:format>image/svg+xml</dc:format>
        <dc:type
           rdf:resource="http://purl.org/dc/dcmitype/StillImage" />
        <dc:title></dc:title>
      </cc:Work>
    </rdf:RDF>
  </metadata>
  <g
     id="layer1">
    <circle
       style="fill:#91d1d5;fill-opacity:1;stroke-width:3.73334"
       id="path1435"
       cx="256"
       cy="256"
       r="256" />
    <rect
       style="fill:#218cf8;fill-opacity:1;stroke-width:1.49999"
       id="rect1428"
       width="384"
       height="384"
       x="128"
       y="128"
       rx="48"
       ry="48" />
    <g
       aria-label="A"
       transform="matrix(2.1871529,0,0,2.1871529,-101.61078,-265.88726)"
       id="text2613"
       style="font-style:normal;font-variant:normal;font-weight:bold;font-stretch:normal;font-size:144px;line-height:1.25;font-family:Comfortaa;-inkscape-font-specification:'Comfortaa Bold';letter-spacing:0px;word-spacing:0px;white-space:pre;shape-inside:url(#rect2615);fill:#ffffff;fill-opacity:1">
      <path
         d="m 241.19522,316.63651 q 0.72,1.872 0.72,3.168 0,3.024 -2.16,5.184 -2.16,2.16 -5.328,2.16 -2.16,0 -4.176,-1.152 -1.872,-1.296 -2.736,-3.456 l -8.064,-20.16 h -51.696 l -8.208,20.16 q -1.008,2.16 -2.88,3.456 -1.872,1.152 -4.032,1.152 -3.168,0 -5.328,-2.16 -2.016,-2.304 -2.016,-5.328 0,-1.44 0.72,-3.312 l 40.464,-96.624 q 2.16,-5.04 7.056,-5.04 5.184,0 7.056,5.04 z m -68.4,-26.64 h 41.616 l -20.592,-51.264 z"
         style="font-style:normal;font-variant:normal;font-weight:bold;font-stretch:normal;font-family:Comfortaa;-inkscape-font-specification:'Comfortaa Bold';fill:#ffffff;fill-opacity:1"
         id="path2622" />
    </g>
  </g>
</svg>
