<?xml version="1.0" encoding="UTF-8" standalone="no"?>
<svg
   xmlns:dc="http://purl.org/dc/elements/1.1/"
   xmlns:cc="http://creativecommons.org/ns#"
   xmlns:rdf="http://www.w3.org/1999/02/22-rdf-syntax-ns#"
   xmlns:svg="http://www.w3.org/2000/svg"
   xmlns="http://www.w3.org/2000/svg"
   width="512"
   height="512"
   viewBox="0 0 512 512"
   version="1.1"
   id="svg865">
  <defs
     id="defs859">
    <rect
       x="184"
       y="377"
       width="260"
       height="153"
       id="rect1447" />
    <rect
       x="55"
       y="279"
       width="183"
       height="187"
       id="rect1441" />
  </defs>
  <metadata
     id="metadata862">
    <rdf:RDF>
      <cc:Work
         rdf:about="">
        <dc:format>image/svg+xml</dc:format>
        <dc:type
           rdf:resource="http://purl.org/dc/dcmitype/StillImage" />
        <dc:title></dc:title>
      </cc:Work>
    </rdf:RDF>
  </metadata>
  <g
     id="layer1">
    <circle
       style="fill:#91d1d5;fill-opacity:1;stroke-width:3.73334"
       id="path1435"
       cx="256"
       cy="256"
       r="256" />
    <rect
       style="fill:#218cf8;fill-opacity:1;stroke-width:1.49999"
       id="rect1428"
       width="384"
       height="384"
       x="128"
       y="128"
       rx="48"
       ry="48" />
    <g
       aria-label="G"
       transform="matrix(2.4218338,0,0,2.4218338,47.695519,-537.10744)"
       id="text1439"
       style="font-style:normal;font-variant:normal;font-weight:bold;font-stretch:normal;font-size:144px;line-height:1.25;font-family:Comfortaa;-inkscape-font-specification:'Comfortaa Bold';letter-spacing:0px;word-spacing:0px;white-space:pre;shape-inside:url(#rect1441);fill:#ffffff;fill-opacity:1">
      <path
         d="m 150.04,352.45937 q 3.168,0 5.184,2.16 2.16,2.016 2.16,5.328 v 34.416 q 0,3.456 -2.304,5.328 -15.12,12.528 -35.28,12.528 -15.408,0 -28.224,-7.632 -12.672,-7.632 -20.016,-20.88 -7.344,-13.248 -7.344,-29.232 0,-15.84 7.344,-28.944 7.344,-13.248 20.016,-20.88 12.816,-7.776 28.224,-7.776 10.944,0 18.864,2.88 8.064,2.88 16.272,9.504 1.728,1.296 2.304,2.736 0.576,1.296 0.576,3.168 0,2.88 -2.16,4.752 -2.016,1.872 -4.896,1.872 -2.592,0 -4.896,-1.872 -5.904,-5.04 -11.52,-7.2 -5.616,-2.304 -14.544,-2.304 -11.232,0 -20.736,5.904 -9.36,5.904 -14.976,16.128 -5.472,10.08 -5.472,22.032 0,12.096 5.472,22.176 5.616,10.08 14.976,15.984 9.504,5.904 20.736,5.904 12.096,0 23.184,-7.2 v -25.632 h -19.872 q -3.312,0 -5.472,-1.872 -2.016,-1.872 -2.016,-4.752 0,-2.88 2.016,-4.752 2.16,-1.872 5.472,-1.872 z"
         style="font-style:normal;font-variant:normal;font-weight:bold;font-stretch:normal;font-family:Comfortaa;-inkscape-font-specification:'Comfortaa Bold';fill:#ffffff;fill-opacity:1"
         id="path2027" />
    </g>
    <text
       xml:space="preserve"
       id="text1445"
       style="font-family:Comfortaa;font-size:144px;line-height:1.25;letter-spacing:0px;word-spacing:0px;-inkscape-font-specification:Comfortaa;white-space:pre;shape-inside:url(#rect1447);" />
  </g>
</svg>
