<?xml version="1.0" encoding="UTF-8" standalone="no"?>
<svg
   xmlns:dc="http://purl.org/dc/elements/1.1/"
   xmlns:cc="http://creativecommons.org/ns#"
   xmlns:rdf="http://www.w3.org/1999/02/22-rdf-syntax-ns#"
   xmlns:svg="http://www.w3.org/2000/svg"
   xmlns="http://www.w3.org/2000/svg"
   width="512"
   height="512"
   viewBox="0 0 512 512"
   version="1.1"
   id="svg865">
  <defs
     id="defs859">
    <rect
       x="19.736842"
       y="656.57895"
       width="351.31579"
       height="351.31579"
       id="rect3222" />
    <rect
       x="205.26316"
       y="177.63158"
       width="201.31579"
       height="263.15789"
       id="rect3216" />
    <rect
       x="222.31579"
       y="211.90431"
       width="151.27273"
       height="180.05742"
       id="rect3206" />
    <rect
       x="213.12919"
       y="218.02871"
       width="151.88517"
       height="204.55502"
       id="rect3200" />
    <rect
       x="142.69856"
       y="195.36842"
       width="232.72727"
       height="205.16746"
       id="rect2615" />
    <rect
       x="184"
       y="377"
       width="260"
       height="153"
       id="rect1447" />
    <rect
       x="55"
       y="279"
       width="601.27808"
       height="220.44573"
       id="rect1441" />
  </defs>
  <metadata
     id="metadata862">
    <rdf:RDF>
      <cc:Work
         rdf:about="">
        <dc:format>image/svg+xml</dc:format>
        <dc:type
           rdf:resource="http://purl.org/dc/dcmitype/StillImage" />
        <dc:title></dc:title>
      </cc:Work>
    </rdf:RDF>
  </metadata>
  <g
     id="layer1">
    <circle
       style="fill:#91d1d5;fill-opacity:1;stroke-width:3.73334"
       id="path1435"
       cx="256"
       cy="256"
       r="256" />
    <rect
       style="fill:#218cf8;fill-opacity:1;stroke-width:1.49999"
       id="rect1428"
       width="384"
       height="384"
       x="128"
       y="128"
       rx="48"
       ry="48" />
    <g
       aria-label="T"
       transform="matrix(2.3863066,0,0,2.3863066,163.06603,-1432.3789)"
       id="text3220"
       style="font-size:144px;line-height:1.25;font-family:Comfortaa;-inkscape-font-specification:Comfortaa;letter-spacing:0px;word-spacing:0px;white-space:pre;shape-inside:url(#rect3222);fill:#ffffff;fill-opacity:1">
      <path
         d="m 105.84833,675.8935 q 3.024,0 4.896,2.016 2.016,1.872 2.016,4.896 0,3.024 -2.016,5.04 -1.872,1.872 -4.896,1.872 H 74.888328 v 91.152 q 0,3.168 -2.16,5.328 -2.16,2.16 -5.328,2.16 -3.168,0 -5.328,-2.16 -2.16,-2.16 -2.16,-5.328 v -91.152 h -31.104 q -3.024,0 -5.04,-1.872 -1.872,-2.016 -1.872,-5.04 0,-3.024 1.872,-4.896 2.016,-2.016 5.04,-2.016 z"
         style="font-style:normal;font-variant:normal;font-weight:bold;font-stretch:normal;font-family:Comfortaa;-inkscape-font-specification:'Comfortaa Bold';fill:#ffffff;fill-opacity:1"
         id="path3226" />
    </g>
  </g>
</svg>
